<?xml version="1.0" encoding="UTF-8"?><svg id="a" xmlns="http://www.w3.org/2000/svg" xmlns:xlink="http://www.w3.org/1999/xlink" viewBox="0 0 100 100.01"><defs><style>.c{fill:url(#b);}.d{fill:#fff;}.e{fill:#d8d8d8;}.f{opacity:.14;}</style><linearGradient id="b" x1="14.65" y1="16.07" x2="85.35" y2="86.78" gradientTransform="translate(0 101.43) scale(1 -1)" gradientUnits="userSpaceOnUse"><stop offset="0" stop-color="#003ccb"/><stop offset="1" stop-color="#09f"/></linearGradient></defs><path class="c" d="M100,50.01c0,27.61-22.39,50-50,50-4.09,0-8.06-.49-11.87-1.42-2.32-.57-3.53-5.18-3.53-5.18,0,0-6.52,1.59-8.08,.75C10.74,85.75,0,69.13,0,50,0,22.39,22.39,0,50,0c4.11,0,8.1,.5,11.92,1.43,1.99,.49,2.71,4.93,2.71,4.93,0,0,7-1.5,8.84-.52,15.78,8.41,26.52,25.03,26.52,44.16h0Z"/><g><path class="e" d="M28.92,50.3l7.36,7.35c4.39,4.39,11.5,4.39,15.89,0l-15.31-15.29-7.94,7.94h0Z"/><path class="e" d="M71.07,49.72l-7.36-7.35c-4.39-4.39-11.5-4.39-15.89,0l15.31,15.29,7.94-7.94h0Z"/><g class="f"><polygon points="63.13 57.66 71.07 49.72 69.96 48.6 59.45 53.98 63.13 57.66"/></g><g class="f"><polygon points="36.87 42.35 28.92 50.3 30.04 51.41 40.55 46.03 36.87 42.35"/></g><path class="d" d="M27.08,48.45l1.85,1.84,7.94-7.94L73.48,5.85c-3.6-1.91-7.5-3.42-11.56-4.41L27.08,36.26c-3.37,3.37-3.37,8.83,0,12.2h0Z"/><path class="d" d="M72.92,51.56l-1.85-1.85-7.94,7.94L26.52,94.15c3.6,1.91,7.55,3.43,11.61,4.43l34.79-34.83c3.37-3.37,3.37-8.83,0-12.19h0Z"/></g></svg>